<svg width="124" height="124" viewBox="0 0 124 124" fill="none" xmlns="http://www.w3.org/2000/svg">
<path fill-rule="evenodd" clip-rule="evenodd" d="M27.9943 116.812L27.9946 116.812L27.9949 116.812C28.2749 116.874 28.5549 116.935 28.8337 117H28.8395H32.9323C35.3018 116.274 37.6741 116.035 40.0437 117H44.5701C44.7122 116.956 44.8547 116.913 44.9972 116.87C46.4188 116.444 47.838 116.018 48.8065 114.724C48.8998 114.601 49.1916 114.61 49.4457 114.617H49.4457H49.4458C49.5048 114.619 49.5617 114.621 49.6136 114.621C53.0056 114.615 56.3947 114.615 59.7838 114.621C59.8172 114.621 59.8526 114.62 59.8893 114.619C59.9168 114.618 59.9451 114.617 59.9738 114.616L59.9744 114.616C60.2262 114.606 60.5082 114.595 60.5966 114.713C61.5699 116.013 62.9935 116.444 64.4212 116.876C64.5566 116.917 64.6921 116.958 64.8273 117H69.3538C71.7233 116.047 74.0957 116.256 76.4652 117H80.558C81.0568 116.846 81.5643 116.711 82.0719 116.575L82.0721 116.575C83.1894 116.276 84.3074 115.978 85.3343 115.49C87.8991 114.276 89.0307 111.878 88.4534 109.175C88.2754 108.34 88.5511 108.058 89.1743 107.688C91.4893 106.317 93.4538 104.572 94.8324 102.219C95.3724 101.298 95.9468 100.386 96.5816 99.5275C101.019 93.5361 103.411 86.8245 103.615 79.3841C103.678 77.0923 103.663 74.7987 103.648 72.5049V72.5047V72.5046C103.636 70.7173 103.625 68.9299 103.65 67.143C103.704 63.2521 104.167 59.3927 105.999 55.8977C107.105 53.7915 108.507 51.8231 109.894 49.8776C111.574 47.5189 111.344 44.4056 109.225 42.6064C107.028 40.7413 103.88 40.945 101.855 43.0885L101.781 43.1665C101.46 43.5051 101.137 43.8466 100.873 44.2277C100.628 44.5785 100.383 44.929 100.137 45.2795L100.135 45.2829C98.9248 47.0125 97.7148 48.7419 96.5643 50.5089C95.9296 51.4845 96.2082 52.4658 97.0583 52.925C97.9114 53.3841 98.7673 53.0598 99.379 52.044C99.4168 51.9823 99.451 51.9186 99.4849 51.8554L99.4849 51.8553C99.5361 51.76 99.5869 51.6654 99.649 51.5792C100.044 51.031 100.437 50.4808 100.83 49.9304L100.83 49.9299L100.83 49.9293C101.912 48.4143 102.995 46.8979 104.124 45.4185C104.908 44.3912 106.177 44.2879 107.068 45.0196C107.949 45.7456 108.021 46.9393 107.237 47.9924C107.087 48.1928 106.929 48.3873 106.771 48.5817C106.657 48.7213 106.543 48.8609 106.433 49.0024C103.627 52.595 101.789 56.6122 100.99 61.1115C100.271 65.1564 100.361 69.2256 100.452 73.2967C100.46 73.6615 100.469 74.0264 100.476 74.3912C100.594 80.0871 100.189 85.6968 97.8108 90.991C97.5264 91.6208 97.2162 92.239 96.8657 92.9377L96.8655 92.938L96.8642 92.9406C96.6914 93.2851 96.5087 93.6493 96.3145 94.044C96.2389 93.7196 96.1739 93.4306 96.1144 93.1661L96.1144 93.166L96.1143 93.1656C95.9908 92.616 95.8909 92.1718 95.7688 91.7341C95.7229 91.5707 95.6811 91.4038 95.6392 91.2361C95.5052 90.7003 95.3695 90.1579 95.0938 89.7055C93.8695 87.6874 94.151 85.6749 94.4614 83.4548L94.4849 83.2865C95.0549 79.1835 95.1942 75.0133 95.3328 70.8644L95.3466 70.4544C95.4758 66.6179 95.6625 62.8073 96.5902 59.0627C96.8487 58.0211 96.369 57.2148 95.4413 56.9737C94.528 56.7384 93.6922 57.2377 93.4797 58.3109C93.3991 58.719 93.3148 59.1275 93.2305 59.5364L93.23 59.5388C92.8875 61.1988 92.5436 62.8655 92.4399 64.5433C92.2732 67.2109 92.1985 69.8851 92.1237 72.5597V72.5599V72.5601C92.0775 74.2152 92.0312 75.8706 91.9632 77.5247C91.9184 78.591 91.8102 79.6547 91.6923 80.8133L91.6923 80.8135L91.6923 80.8137L91.6923 80.8138C91.6364 81.3636 91.5783 81.9347 91.5237 82.5376C91.1387 81.9878 90.7678 81.4594 90.4078 80.9464L90.4052 80.9427C89.402 79.5134 88.4829 78.2038 87.5746 76.8848C87.4672 76.7308 87.4103 76.5423 87.3533 76.3535C87.3264 76.2645 87.2995 76.1755 87.2673 76.09C86.9528 75.2471 86.6408 74.4033 86.3288 73.5596L86.3283 73.5581L86.3282 73.5578C85.5263 71.389 84.7245 69.2206 83.881 67.0684C83.6512 66.4802 83.634 66.1559 84.1136 65.7054C86.038 63.8977 87.6176 61.8116 88.7607 59.4357C92.5146 51.628 92.73 43.5993 90.2255 35.4042C90.0791 34.925 89.9728 34.3138 90.1422 33.8805C92.7961 27.1373 93.4653 20.067 93.6319 12.925C93.7008 9.96369 91.5639 7.54189 88.6258 7.10286C87.7641 6.97374 86.8364 7.09425 85.9604 7.23199C80.153 8.1416 74.5293 9.63371 69.3566 12.5491C69.0206 12.7384 68.4548 12.7356 68.0728 12.6036C59.1318 9.52467 50.2053 9.51606 41.2701 12.6323C40.9197 12.7557 40.3969 12.7499 40.0839 12.572C34.6297 9.47876 28.6671 8.001 22.5351 7.06843C19.3126 6.57775 16.3084 8.78722 15.8718 12.0268C15.7331 13.0466 15.7895 14.0982 15.8454 15.1419C15.8567 15.3522 15.8679 15.5621 15.8775 15.7714C16.159 21.9809 16.9661 28.0928 19.281 33.9293C19.4332 34.308 19.3586 34.8446 19.2264 35.2521C18.1896 38.4372 17.575 41.6911 17.552 45.0483C17.4974 52.9737 19.5022 60.1301 25.4073 65.8059C25.8547 66.2358 25.7281 66.5442 25.5409 67.0003L25.5365 67.011C25.3065 67.572 25.072 68.1317 24.8374 68.6916L24.8373 68.6918C24.0495 70.572 23.2611 72.4538 22.6414 74.3884C22.1072 76.0527 21.4035 77.539 20.3897 78.9537C17.5865 82.8618 14.9929 86.902 13.6804 91.5964C12.2673 96.6466 12.9135 101.266 16.8225 105.063C17.5105 105.73 18.3008 106.291 19.0926 106.853L19.0927 106.853L19.0928 106.853C19.5602 107.185 20.0281 107.517 20.4758 107.872C20.7314 108.076 21.0416 108.469 21.0129 108.738C20.5534 112.911 22.0584 115.195 26.131 116.363C26.7439 116.539 27.3691 116.676 27.9943 116.812ZM25.1224 101.76C25.329 102.109 25.5366 102.461 25.7433 102.816L25.7462 102.825C25.2191 103.258 24.6966 103.687 24.172 104.118L24.1593 104.128C23.6847 104.518 23.2082 104.909 22.7247 105.307C18.2557 103.668 15.5673 99.0455 16.3888 94.2019C16.9977 90.6122 18.6922 87.473 20.8262 84.4572C20.8262 84.8185 20.8233 85.1797 20.8203 85.5409C20.8136 86.3619 20.8069 87.1829 20.8348 88.0039C20.8664 88.9307 20.9698 89.8575 21.0761 90.7815C21.214 91.9494 21.9004 92.5978 22.8568 92.5118C23.8506 92.4199 24.4336 91.5964 24.2814 90.3855C23.3508 83.0225 24.896 76.0928 27.9462 69.4214C28.0519 69.1896 28.171 68.9638 28.2636 68.7881L28.2637 68.788L28.2637 68.7879L28.2638 68.7877C28.2996 68.72 28.3314 68.6596 28.357 68.6093C29.1426 68.9806 29.9164 69.3661 30.6865 69.7497L30.6865 69.7497L30.6866 69.7497C32.3684 70.5875 34.0325 71.4164 35.7642 72.0699C42.551 74.6323 49.6596 75.1689 56.8456 74.9823C58.0406 74.9511 59.2341 74.8642 60.4283 74.7771L60.4286 74.7771L60.4289 74.7771C60.882 74.7441 61.3352 74.711 61.7886 74.6811C63.193 74.5864 63.9628 73.9207 63.8795 72.8991C63.7933 71.8547 63.0092 71.3324 61.5473 71.473C56.9203 71.9149 52.2962 71.9293 47.6749 71.4501C41.8359 70.8446 36.218 69.496 31.2004 66.2937C25.2148 62.4716 22.0785 56.902 21.056 49.978C18.6635 33.7657 30.6748 16.879 48.5279 14.0871C60.9442 12.1473 71.8324 15.3238 80.3138 24.793C87.5487 32.8676 90.306 42.374 87.7009 53.0856C85.7163 61.2377 80.2219 66.2076 72.5533 69.0627C71.8716 69.3166 71.1715 69.5266 70.4719 69.7365C70.1752 69.8255 69.8786 69.9145 69.5835 70.0067C68.4548 70.3625 67.8947 71.1402 68.1302 72.0326C68.3887 73.011 69.2705 73.4529 70.4567 73.1229C73.8228 72.1875 77.0367 70.8877 79.9921 68.9967C80.1606 68.8894 80.3319 68.7841 80.517 68.6702C80.6538 68.5861 80.7981 68.4974 80.9543 68.3998C82.465 71.3669 83.5794 74.4113 84.3233 77.5821C85.7479 83.6452 86.0581 89.7169 83.7546 95.6395C83.1627 97.1617 82.2887 98.5782 81.4185 99.9884L81.4184 99.9884L81.4178 99.9895C81.1777 100.379 80.9379 100.767 80.7044 101.157C80.5292 101.45 79.9663 101.614 79.5671 101.651C78.998 101.703 78.4234 101.694 77.7987 101.683C77.5311 101.679 77.2543 101.674 76.9649 101.674C77.0753 101.313 77.1944 100.963 77.3117 100.618L77.3121 100.617L77.3123 100.616C77.5577 99.8942 77.795 99.1964 77.9271 98.4802C78.5388 95.1803 79.0903 91.869 79.613 88.5519C79.7968 87.3869 79.2195 86.5978 78.2631 86.4745C77.2234 86.3396 76.5197 86.9508 76.4192 88.2019C75.9654 93.7743 74.7735 99.1545 72.3207 104.216C72.2134 104.443 72.0975 104.665 72.0033 104.846C71.9638 104.921 71.9281 104.99 71.8985 105.048C71.4215 104.931 70.9526 104.796 70.4883 104.663L70.4881 104.663L70.488 104.663C69.443 104.362 68.4215 104.069 67.3835 103.995C66.3786 103.922 65.3574 104.073 64.2855 104.231C63.7979 104.303 63.2999 104.377 62.7881 104.431V100.836C62.7871 100.545 62.7882 100.255 62.7893 99.964C62.7914 99.4311 62.7935 98.8983 62.7823 98.3654C62.7565 97.0684 62.1878 96.3798 61.1739 96.3712C60.1515 96.3625 59.5655 97.0455 59.5598 98.3425C59.5494 101.207 59.5511 104.071 59.5528 106.935V106.935V106.935C59.5534 108.01 59.5541 109.084 59.5541 110.159V111.39C59.1596 111.414 58.7761 111.442 58.4 111.47H58.3998H58.3997H58.3996C57.5845 111.529 56.8044 111.586 56.0242 111.599C54.6232 111.621 53.2236 111.617 51.7695 111.612H51.7691H51.7686L51.7641 111.612C51.1392 111.61 50.5043 111.608 49.8549 111.608V110.213V98.9364C49.8549 98.8592 49.8557 98.7819 49.8565 98.7047V98.7045C49.8591 98.4579 49.8617 98.212 49.8376 97.9694C49.7342 96.9508 49.0823 96.3367 48.1689 96.3712C47.2958 96.4027 46.6697 97.0053 46.6467 97.9895C46.6157 99.3013 46.6189 100.614 46.622 101.927C46.6233 102.441 46.6245 102.954 46.6237 103.467V104.756C43.4787 103.416 40.552 103.771 37.4961 105.312C37.2342 104.653 36.9677 104.002 36.7029 103.356L36.7019 103.354L36.7018 103.353C36.1364 101.974 35.579 100.613 35.0921 99.2262C33.8513 95.694 33.3372 92.0096 32.9897 88.2966C32.8633 86.9393 32.1884 86.331 31.1257 86.4716C30.1348 86.6036 29.6867 87.3869 29.7901 88.6638C30.1492 93.0627 30.9045 97.3841 32.4555 101.565C32.178 101.579 31.9056 101.596 31.637 101.612C30.9159 101.657 30.2222 101.699 29.5317 101.682C29.2473 101.677 28.8711 101.427 28.7016 101.177C27.9405 100.053 27.2138 98.9049 26.5245 97.7341C25.8869 96.6495 25.0597 96.242 24.1751 96.6753C23.302 97.1029 23.055 98.0785 23.638 99.166C24.1064 100.041 24.6112 100.895 25.1223 101.76L25.1224 101.76ZM21.4897 29.9006C21.3461 29.9264 21.2053 29.9493 21.0617 29.9723C20.8969 28.9682 20.7262 27.9645 20.5554 26.9607L20.5554 26.9606L20.5554 26.9605C20.1402 24.5193 19.7248 22.0773 19.393 19.6251C19.1798 18.051 19.1174 16.4541 19.0551 14.8591C19.0377 14.413 19.0203 13.9671 18.9995 13.5218C18.8904 11.1316 20.2863 9.97804 22.6644 10.3539C26.8922 11.0225 31.0367 11.9809 34.9887 13.6624C35.4827 13.8719 35.9681 14.1014 36.4535 14.331L36.4535 14.331C36.511 14.3579 36.5606 14.3994 36.6318 14.459L36.6318 14.459C36.6745 14.4947 36.725 14.5369 36.7895 14.5864C36.5242 14.7481 36.2633 14.9103 36.0048 15.071L36.0047 15.0711C35.2865 15.5175 34.5864 15.9527 33.86 16.3367C33.6101 16.4687 33.1793 16.3482 32.8605 16.2506C32.2035 16.0506 31.5501 15.8368 30.8968 15.6231L30.8967 15.6231L30.8967 15.6231L30.8967 15.6231C29.779 15.2575 28.6615 14.8919 27.5269 14.595C24.5255 13.8087 22.2738 15.7083 22.5725 18.8016C22.7003 20.1343 22.9021 21.4592 23.1038 22.7842C23.2466 23.7215 23.3893 24.6589 23.5059 25.5993C23.5605 26.044 23.4628 26.5749 23.2532 26.9709C22.8747 27.6882 22.4424 28.3764 22.0101 29.0646L22.0101 29.0646C21.8354 29.3426 21.6608 29.6206 21.4897 29.9006ZM88.0434 29.8587L88.0434 29.8588L88.043 29.8594C88.0195 29.8954 87.9932 29.9357 87.9652 29.9838L87.9594 29.9809C87.7609 29.6582 87.5623 29.3405 87.3655 29.0255L87.3653 29.0252C86.8674 28.2286 86.3804 27.4494 85.9317 26.6495C85.7852 26.3826 85.8226 25.9752 85.8685 25.6452C85.9827 24.8051 86.109 23.967 86.2353 23.1291L86.2354 23.1287L86.2354 23.1283L86.2355 23.1281L86.2355 23.128C86.4556 21.668 86.6756 20.2087 86.8307 18.7413C87.1437 15.8001 84.9035 13.846 82.0227 14.5634C81.0041 14.8178 80.0039 15.1428 79.0033 15.4679C78.1982 15.7294 77.3928 15.9911 76.5772 16.2162C76.132 16.3396 75.5403 16.2736 75.121 16.0756C74.5319 15.7981 73.9766 15.4503 73.3151 15.0361C73.0123 14.8464 72.6872 14.6428 72.3264 14.4257C73.1107 14.1455 73.864 13.8615 74.5988 13.5845L74.5988 13.5845L74.5989 13.5845C76.1891 12.9851 77.6928 12.4183 79.2368 11.9924C81.6301 11.3343 84.0774 10.87 86.5197 10.4067L87.115 10.2937C88.8613 9.96082 90.4151 11.1029 90.3893 12.8274C90.306 18.529 89.7976 24.1846 88.1375 29.6825C88.1207 29.7402 88.087 29.7919 88.0434 29.8587ZM87.1188 105.166C86.9999 105.234 86.8841 105.301 86.7732 105.367V105.364L85.3912 104.229L83.5995 102.759C87.5545 97.3439 88.8871 91.1402 88.5913 84.5003C88.6156 84.4975 88.6423 84.4923 88.6678 84.4873L88.6679 84.4872C88.7208 84.4769 88.7683 84.4676 88.778 84.4831C90.8861 87.7054 92.6496 91.0713 93.0862 94.9709C93.5744 99.3238 91.5209 102.363 88.0082 104.632C87.7116 104.823 87.4063 105 87.1188 105.166ZM33.9713 113.499C33.5126 111.58 33.6508 109.817 34.6412 108.162C35.1294 107.347 34.5521 105.746 33.6503 105.341C30.5886 103.975 26.1626 105.476 24.5715 108.417C23.4829 110.431 24.0172 112.093 26.1253 112.945C28.6526 113.966 31.2746 113.946 33.9713 113.499ZM83.3296 112.939C81.3995 113.803 78.0908 114.027 75.4283 113.444H75.4312C75.9453 111.456 75.6954 109.642 74.6299 107.941C74.2565 107.344 74.9544 105.72 75.6954 105.367C78.9093 103.832 83.5995 105.591 85.0126 108.856C85.8053 110.69 85.228 112.09 83.3296 112.939ZM43.0916 113.78L43.0914 113.78L43.0911 113.78C42.8158 113.803 42.5311 113.827 42.2351 113.86C41.9026 113.815 41.5577 113.776 41.2054 113.736L41.2049 113.736L41.2045 113.736C40.3701 113.642 39.494 113.542 38.6421 113.347C37.0308 112.977 36.577 112.004 37.1141 110.434C38.0504 107.697 42.8698 106.133 45.2623 107.789C46.5347 108.672 47.1177 111.404 46.2073 112.647C45.8999 113.066 45.3284 113.398 44.8143 113.536C44.273 113.681 43.7057 113.728 43.0916 113.78ZM67.0618 113.889C67.0561 113.837 67.0503 113.789 67.0446 113.74V113.743C66.8846 113.743 66.7243 113.747 66.564 113.751C66.221 113.76 65.8783 113.768 65.5396 113.737C63.7215 113.565 62.9949 112.962 62.8426 111.556C62.6043 109.387 63.3682 107.901 64.9939 107.367C67.0618 106.687 70.0976 107.484 71.4935 109.166C71.91 109.668 72.223 110.322 72.3752 110.957C72.6797 112.231 72.2489 112.991 70.9765 113.292C70.0924 113.5 69.1865 113.614 68.2803 113.727L68.2797 113.728C67.8731 113.779 67.4665 113.83 67.0618 113.889ZM29.3501 18.4589L29.3508 18.4591C29.6254 18.5359 29.8915 18.6102 30.1463 18.6811H30.1492L29.402 19.4543C28.3674 20.5248 27.3329 21.5954 26.2517 22.7126C26.2167 22.4056 26.1815 22.098 26.1462 21.7898L26.1458 21.7866C26.0188 20.6784 25.891 19.563 25.772 18.4458C25.7117 17.869 25.9156 17.5161 26.5647 17.6911C27.523 17.9484 28.4796 18.2157 29.3501 18.4589L29.3501 18.4589ZM80.8279 20.3027L80.8223 20.2968L80.799 20.2721C80.2951 19.7371 79.7953 19.2067 79.2942 18.6753V18.6724C79.5559 18.5994 79.8343 18.5206 80.1254 18.4382C80.9781 18.197 81.9395 17.9249 82.9073 17.6767C83.499 17.5275 83.68 17.9063 83.6283 18.4142C83.5226 19.4332 83.4083 20.4494 83.2925 21.479L83.2921 21.483L83.2914 21.489C83.2439 21.9114 83.1961 22.3362 83.1486 22.7643C82.3528 21.9213 81.5855 21.1069 80.8279 20.3027ZM54.2755 39.9865C53.6821 39.8896 53.0596 39.7881 52.401 39.6624L52.4046 39.6592C51.8759 39.799 51.3169 39.9273 50.7427 40.0592L50.7426 40.0592C49.3906 40.3695 47.9542 40.6993 46.6305 41.2442C44.0832 42.2922 42.8368 44.6664 43.2837 47.0795C43.9015 50.4177 45.9764 52.8501 49.4648 54.2249C50.3769 54.5839 50.7839 54.9235 50.7548 55.8616L50.7494 56.0301C50.68 58.1817 50.6792 58.2092 48.2766 59.0672C47.9844 59.1712 47.685 59.2613 47.3855 59.3514L47.3854 59.3514C47.1261 59.4294 46.8669 59.5074 46.6123 59.5944C45.4241 60.002 44.8572 60.9239 45.1915 61.8781C45.5294 62.842 46.6014 63.3757 47.7969 63.0231C48.4819 62.821 49.1487 62.5703 49.8155 62.3196C50.4823 62.0689 51.1491 61.8182 51.8341 61.6161C52.3937 61.4543 53.1096 61.4414 53.6655 61.6064C54.3674 61.8135 55.0504 62.0702 55.7333 62.3267C56.4258 62.5869 57.1181 62.847 57.8299 63.0555C58.9273 63.379 60.032 62.8161 60.3118 61.8975C60.6134 60.9109 60.2246 60.1378 59.178 59.6979C58.841 59.5565 58.4851 59.4524 58.1288 59.3482C57.8819 59.2759 57.6348 59.2037 57.3938 59.1189C54.8279 58.2218 54.8276 58.2007 54.7938 55.8713L54.792 55.7516C54.7775 54.93 55.09 54.5774 55.9367 54.2734C58.9891 53.1801 60.9477 51.1261 61.9252 48.3766C63.1389 44.9543 61.4928 41.9299 57.6773 40.7072C56.6278 40.3703 55.5153 40.1888 54.2755 39.9865ZM51.6697 43.5963L51.6697 43.5963C52.0465 43.543 52.432 43.4886 52.8261 43.4211V43.4179C53.1793 43.485 53.5421 43.5428 53.9085 43.6012L53.9086 43.6012L53.9088 43.6012C54.76 43.7368 55.6311 43.8756 56.449 44.1424C57.9789 44.6438 58.4876 45.7889 58.0661 47.1927C57.4047 49.3826 55.0972 51.1713 52.8625 51.2263C50.6422 51.2813 48.2766 49.5702 47.528 47.3609C46.9757 45.7371 47.568 44.5694 49.3958 44.0292C50.1139 43.8161 50.8722 43.709 51.6696 43.5963H51.6697ZM67.7535 39.6331C67.7535 39.4825 67.7499 39.3316 67.7464 39.1807C67.7385 38.8486 67.7307 38.5164 67.7607 38.1872C67.8588 37.1554 68.7128 36.447 69.7957 36.4502C70.8785 36.4567 71.7434 37.1651 71.8088 38.2066C71.8706 39.2094 71.8706 40.2186 71.8088 41.2181C71.7397 42.2629 70.8785 42.9422 69.7739 42.9389C68.6692 42.9325 67.8516 42.2467 67.7607 41.1987C67.7307 40.8406 67.7386 40.4809 67.7464 40.1218V40.1218C67.7499 39.9587 67.7535 39.7957 67.7535 39.6331ZM37.7666 40.1987C37.7634 40.0488 37.7603 39.899 37.7603 39.7494L37.753 39.7462C37.753 39.5826 37.7569 39.4187 37.7609 39.2547C37.7695 38.8966 37.7781 38.5378 37.7457 38.1806C37.6549 37.152 36.9935 36.5633 35.8489 36.463C34.7696 36.3692 33.7994 37.0711 33.7158 38.0868C33.6286 39.1672 33.6068 40.2637 33.7267 41.3376C33.8394 42.3307 34.5698 42.9194 35.7471 42.9323C36.8627 42.9452 37.6658 42.253 37.753 41.1953C37.7806 40.8651 37.7736 40.5319 37.7666 40.1987Z" fill="#00625C"/>
</svg>
