<svg width="124" height="124" viewBox="0 0 124 124" fill="none" xmlns="http://www.w3.org/2000/svg">
<path fill-rule="evenodd" clip-rule="evenodd" d="M85.8751 11.0796C85.6637 11.0026 85.4523 10.9256 85.2444 10.843H78.4456C77.8021 10.9294 77.1559 11.0036 76.5096 11.0778L76.5095 11.0778L76.5095 11.0778L76.5094 11.0778L76.5093 11.0778C75.0558 11.2447 73.602 11.4117 72.1791 11.7173C70.6772 12.0375 69.1981 12.4669 67.7187 12.8963C66.8881 13.1374 66.0574 13.3786 65.2225 13.6005C64.7985 13.7116 64.2721 13.8052 63.8949 13.6531C60.3099 12.2085 56.6049 11.3079 52.7538 11.0096C52.607 10.9974 52.4616 10.9496 52.3167 10.902L52.3165 10.902C52.2536 10.8813 52.1908 10.8607 52.128 10.843H46.4258C45.8175 10.9448 45.2068 11.037 44.596 11.1291L44.596 11.1291L44.596 11.1292L44.5959 11.1292L44.5959 11.1292C43.1896 11.3414 41.7831 11.5537 40.4049 11.884C39.1771 12.1773 37.9771 12.5782 36.7761 12.9795C36.1093 13.2022 35.4423 13.4251 34.77 13.6297C34.4162 13.7379 33.9659 13.8285 33.6471 13.7028C30.9337 12.3439 29.7466 11.6024 28.4494 10.792C27.7926 10.3816 27.1075 9.95365 26.1817 9.41894C26.1817 9.41894 22.6976 7.63656 18.9546 5.67599C17.3949 4.859 16.5606 4.475 15.8221 4.13508C14.9764 3.74584 14.2563 3.4144 12.7164 2.55684C10.2537 1.1854 8.11318 0.825079 7.43184 1.21692C5.35625 2.4236 6.68316 8.76031 7.3072 11.7405L7.30722 11.7405C7.3531 11.9597 7.39519 12.1606 7.43184 12.3401C8.60444 18.092 11.0637 29.6367 13.6574 34.9382C13.688 34.9993 13.7011 35.0679 13.7154 35.1432C13.7231 35.1832 13.7311 35.225 13.7422 35.2687C9.98465 38.9239 7.81491 43.4885 6.20369 48.3748C6.14242 48.5607 6.05405 48.738 5.96547 48.9157C5.92723 48.9924 5.88894 49.0692 5.85278 49.1468V50.8984C7.03123 53.3576 7.98451 53.9571 10.6601 53.8635C10.1543 56.9047 10.4554 59.8786 11.3035 62.8203C11.7011 64.1917 12.4673 65.1801 13.868 65.5398C15.3447 65.917 16.6284 65.5135 17.5875 64.3058C18.0466 63.7297 18.3888 63.7531 18.9093 64.2648C19.731 65.069 19.9707 65.6714 19.4034 66.9288C18.3871 69.1763 17.763 71.6142 17.1472 74.019L17.1343 74.0696C17.0013 74.5886 17.0923 75.1601 17.184 75.7361C17.2375 76.0722 17.2913 76.4098 17.301 76.7394C17.3127 77.102 17.2103 77.5056 17.0436 77.8301C14.5405 82.7311 12.6895 87.8542 11.8912 93.3137C11.1748 98.2058 11.1777 103.057 13.0404 107.75C15.3973 113.686 19.9824 117.234 25.7343 119.526C25.9945 119.63 26.2545 119.732 26.514 119.833C27.8618 120.361 29.1964 120.883 30.4715 121.672C32.7349 123.072 35.3794 122.978 37.9676 122.886L37.9689 122.886C38.1388 122.88 38.3086 122.874 38.4779 122.868L39.054 122.849H39.0542H39.0544H39.0545H39.0547C40.4217 122.802 41.7906 122.755 43.1595 122.74L44.4882 122.725C48.9379 122.674 53.3896 122.623 57.8389 122.62C58.5583 122.618 59.2778 122.685 59.9969 122.752H59.997H59.9971H59.9972H59.9973C60.7307 122.82 61.4637 122.887 62.1959 122.883C64.7341 122.871 67.2489 122.67 69.3163 120.9C69.4859 120.757 69.7901 120.731 70.0328 120.725C79.744 120.474 88.3323 116.988 96.2013 111.549C98.3933 110.033 100.428 108.284 102.454 106.542L102.684 106.344C104.714 104.601 104.804 103.651 103.494 101.554C104.128 100.852 104.766 100.159 105.404 99.466L105.404 99.4654L105.405 99.4649L105.405 99.4643L105.406 99.4637L105.406 99.4636L105.406 99.4635L105.406 99.4634L105.406 99.4634C106.849 97.8965 108.285 96.3362 109.641 94.7085C111.039 93.033 112.261 91.2024 113.474 89.3836C114.989 87.1144 114.764 86.0208 112.717 84.5002C113.086 83.7253 113.456 82.9532 113.825 82.1822L113.826 82.182C114.797 80.1541 115.765 78.135 116.697 76.099C117.08 75.2639 117.395 74.3971 117.709 73.5298L117.71 73.5297L117.71 73.5296L117.71 73.5295L117.71 73.5294L117.71 73.5285C117.854 73.1329 117.997 72.7372 118.147 72.3444V70.8121C117.32 69.4377 116.238 68.5546 114.591 69.002C114.655 68.2548 114.723 67.5127 114.79 66.7739C114.944 65.0695 115.098 63.3827 115.2 61.6916C115.302 59.978 114.691 59.0042 113.419 58.5247C112.156 58.048 111.12 58.4136 110.006 59.7645C108.957 61.0378 107.916 62.3158 106.87 63.5987L106.87 63.5989L106.866 63.6038L106.865 63.6057L106.863 63.6071C106.504 64.048 106.144 64.4895 105.784 64.9316C103.985 62.5045 102.088 62.5542 100.374 65.0222C100.002 65.5556 99.6328 66.0901 99.2634 66.6243L99.2633 66.6245C99.0313 66.96 98.7993 67.2955 98.5669 67.6306C97.8261 68.6971 97.0828 69.7648 96.3387 70.8337L96.3369 70.8363L96.3265 70.8512C95.9321 71.4178 95.5374 71.9847 95.1427 72.552C93.2449 71.0051 92.0665 71.0636 90.4172 72.7479L90.3408 72.826L90.1718 72.9984L90.1717 72.9984C89.4618 73.7222 88.7477 74.4502 88.1159 75.2393C86.9752 76.6663 85.8615 78.1161 84.7411 79.5749C84.2589 80.2026 83.7755 80.832 83.2881 81.462C83.1229 81.1243 82.9557 80.7843 82.7875 80.4423L82.7874 80.4421C82.2945 79.4398 81.7932 78.4205 81.3113 77.3915C81.2335 77.2233 81.2591 76.997 81.2827 76.7883L81.2828 76.7881L81.2855 76.764C81.2884 76.7379 81.2913 76.7121 81.2938 76.6868C81.3173 76.45 81.3571 76.2121 81.397 75.9743C81.4713 75.5311 81.5455 75.0884 81.5131 74.6545C81.2879 71.666 80.3873 68.8675 78.9047 66.2708C78.3755 65.3478 78.91 64.933 79.4216 64.5359C79.6053 64.3933 79.7861 64.253 79.9136 64.0923C80.3672 63.5212 80.6791 63.921 80.9632 64.2852C81.0326 64.3741 81.1003 64.4609 81.168 64.531C83.0278 66.4638 86.1801 65.8819 87.072 63.3642C88.0691 60.5453 88.3937 57.6211 88.0253 54.6384C88.0005 54.4466 87.9801 54.2549 87.959 54.0559L87.949 53.9623L87.9377 53.8572L87.9317 53.8021C91.0342 54.1179 93.359 51.9336 92.6104 49.2813C91.1922 44.2547 89.0458 39.5643 85.2999 35.7745C84.8964 35.3652 84.8467 35.0757 85.0718 34.5669C85.8204 32.8679 86.5368 31.1543 87.2094 29.4232C87.6422 28.312 87.2796 27.3909 86.379 27.0517C85.4052 26.6862 84.6157 27.1628 84.1127 28.3413C83.1974 30.4847 82.2617 32.6164 81.3143 34.7452C80.823 35.8447 81.016 36.4296 81.8962 37.2337C82.9401 38.187 83.9928 39.1695 84.832 40.2953C86.8088 42.9505 88.113 45.9653 89.1394 49.0942C89.2313 49.3739 89.229 49.6822 89.2267 49.9912C89.2257 50.1345 89.2246 50.278 89.2329 50.4188C89.1052 50.4144 88.976 50.4159 88.8469 50.4174C88.5536 50.4209 88.2605 50.4244 87.9843 50.3574C85.6303 49.7814 84.0016 51.4569 84.4344 53.846C84.7151 55.4075 84.8145 57.0275 84.7502 58.6124C84.7159 59.4784 84.5028 60.336 84.2874 61.2025C84.1901 61.5942 84.0923 61.9877 84.0104 62.3846C83.8777 62.3391 83.7858 62.3123 83.7203 62.2931C83.63 62.2667 83.5901 62.2551 83.563 62.2296C81.0716 59.8523 79.2907 59.9838 76.852 62.4372C75.422 63.8759 73.8488 65.2357 72.1382 66.3147C66.4857 69.8851 60.1139 71.0607 53.5608 71.4496C52.0297 71.5391 50.4915 71.5323 48.953 71.5254H48.9529H48.9528H48.9528H48.9527H48.9516C48.0782 71.5216 47.2046 71.5177 46.3323 71.5314C45.2269 71.549 44.5046 72.2099 44.4842 73.1456C44.4637 74.0404 45.1392 74.751 46.1656 74.7919C53.8123 75.0931 61.3743 74.596 68.5736 71.7478C70.3408 71.0486 72.0297 70.1503 73.725 69.2485L73.7257 69.2482L73.7263 69.2478L73.727 69.2475L73.7277 69.2472C74.5057 68.8333 75.2851 68.4187 76.0741 68.0224C77.238 69.8266 78.2819 73.245 78.0655 74.7714C77.83 74.7315 77.595 74.6904 77.3601 74.6493L77.359 74.6491L77.3578 74.6489L77.3566 74.6487C76.7675 74.5455 76.1796 74.4426 75.5887 74.3591C73.4424 74.0521 71.9598 75.5814 72.3282 77.719C72.3696 77.9629 72.4277 78.2047 72.4858 78.4468L72.4859 78.4471C72.5469 78.7013 72.608 78.9557 72.6499 79.2133C72.9803 81.2251 73.0622 83.234 72.53 85.3102C72.181 85.2076 71.8404 85.1064 71.5057 85.007L71.5053 85.0069C70.6763 84.7607 69.883 84.525 69.0853 84.3043C67.2343 83.7955 65.6903 84.8511 65.4886 86.743L65.4848 86.7785L65.4722 86.9007C65.4645 86.9755 65.457 87.0504 65.4495 87.1253L65.4494 87.1264L65.4494 87.1265C65.404 87.5793 65.3585 88.0332 65.281 88.48C64.9505 90.3778 64.43 92.2113 63.4387 93.919C63.2553 93.8508 63.0811 93.7899 62.9142 93.7315C62.594 93.6194 62.3001 93.5166 62.0176 93.3897L61.8442 93.313C61.0359 92.9557 60.2248 92.597 59.4443 92.185C57.5173 91.1644 56.2335 91.4276 55.0668 93.2494C53.6895 95.4016 51.8853 97.1327 49.929 98.741C49.4143 99.165 49.0898 99.0948 48.619 98.7117C46.6832 97.1385 44.9082 95.4279 43.5484 93.3078C42.3349 91.413 41.0921 91.1673 39.0949 92.1966C38.217 92.6487 37.31 93.0441 36.4111 93.4361L36.4109 93.4362C36.0015 93.6147 35.5937 93.7925 35.1911 93.9746C34.0507 92.0534 33.4395 89.9041 33.0886 86.8132C32.8605 84.7838 31.3341 83.7779 29.3486 84.3481C28.6931 84.5369 28.0376 84.7279 27.3655 84.9237C26.9343 85.0494 26.4963 85.177 26.0472 85.3073C26.0176 85.192 25.9831 85.0878 25.951 84.991C25.891 84.8103 25.8397 84.6555 25.8454 84.5031C25.8697 83.9018 25.8803 83.2979 25.8909 82.6937L25.8909 82.6935L25.8909 82.6933L25.8909 82.6931L25.891 82.6929C25.9174 81.1878 25.9439 79.6812 26.1817 78.2103C26.6203 75.482 25.2723 73.9673 22.5119 74.4498C22.0439 74.5324 21.572 74.5938 20.9895 74.6696L20.989 74.6697C20.7053 74.7066 20.3953 74.747 20.0468 74.7948C20.8772 72.2596 21.6171 70.0021 22.3218 67.8528C23.0731 68.2478 23.7926 68.6531 24.4965 69.0496L24.4968 69.0497L24.4972 69.05L24.4975 69.0502L24.4979 69.0503L24.4979 69.0504C26.0345 69.916 27.4964 70.7394 29.0503 71.3209C31.3853 72.1974 33.8138 72.831 36.2386 73.4637L36.2389 73.4638L36.239 73.4639L36.2392 73.4639L36.2393 73.4639C36.8478 73.6227 37.4561 73.7814 38.0627 73.9439C39.0569 74.21 39.8844 73.6281 40.0687 72.7479C40.2617 71.818 39.7733 71.0694 38.7791 70.7887C38.5335 70.7214 38.282 70.6659 38.0305 70.6191C31.4628 69.3588 25.5384 66.9025 20.9884 61.7413C19.4795 60.0336 17.0641 60.1388 15.4383 61.7734C15.3 61.9136 15.154 62.0487 14.9734 62.2156L14.973 62.216L14.9722 62.2167L14.9718 62.2171C14.8816 62.3005 14.7828 62.3918 14.6721 62.4957C13.7685 59.6563 13.3679 56.9895 13.9996 54.2437C14.675 51.3019 13.1896 49.7901 10.2537 50.4627C9.27115 50.6908 8.97289 50.4276 9.32379 49.5006C9.39505 49.3118 9.46613 49.1228 9.53723 48.9337L9.53741 48.9333L9.53826 48.931C10.1846 47.2125 10.8323 45.4904 11.6222 43.8394C12.7422 41.5001 14.1048 39.2836 16.1635 37.6109C17.8332 36.2512 17.8946 36.0143 16.8974 34.0493C14.254 28.8355 11.7918 17.3522 10.6601 11.6558C10.5671 11.1851 10.3786 10.5618 10.1742 9.886L10.1742 9.88599C9.53049 7.75774 8.72895 5.10765 10.2537 5.05216C10.7308 5.03577 11.9335 5.65877 13.5556 6.49893L13.5556 6.49893L13.5556 6.49894C14.5383 7.00797 15.675 7.59673 16.8974 8.17129C19.8007 9.5359 22.4653 11.1238 25.0364 12.6561L25.0365 12.6561L25.0365 12.6561C27.8133 14.3109 30.4811 15.9007 33.2231 17.0744C33.8197 17.3317 34.7408 17.1797 35.387 16.9165C44.0105 13.387 52.7333 13.1092 61.4591 16.3258C63.5879 17.1095 65.319 17.1884 67.4566 16.3521C72.7406 14.2847 78.3491 14.0537 83.9636 14.1444C86.2064 14.1794 87.3878 15.6298 86.9492 17.8171C86.8719 18.1975 86.7856 18.576 86.6994 18.9544L86.6993 18.9546L86.6993 18.9548L86.6992 18.955L86.6992 18.9552C86.5667 19.5364 86.4342 20.1172 86.3351 20.7033C86.1479 21.8291 86.6275 22.5952 87.5691 22.8058C88.4697 23.0046 89.2651 22.4461 89.5371 21.3554C89.809 20.2617 90.0605 19.1564 90.2506 18.0452C90.7038 15.3813 89.5371 12.8899 87.2504 11.6559C86.8149 11.422 86.3447 11.2507 85.8751 11.0796ZM68.2691 90.1623C68.5333 89.3716 68.8009 88.5712 69.0824 87.7607L69.0795 87.7548C69.3372 87.8239 69.6159 87.9005 69.9094 87.9812L69.9102 87.9814L69.9102 87.9814L69.911 87.9816L69.9112 87.9817C70.5865 88.1673 71.3405 88.3745 72.1002 88.5619C73.9716 89.021 75.3723 88.1613 75.7583 86.281C76.2671 83.7955 76.3578 81.2924 75.9104 78.7805C75.8744 78.5889 75.8535 78.3945 75.8327 78.2012L75.8323 78.1972C75.8268 78.1463 75.8213 78.0955 75.8155 78.0448C75.8113 78.0073 75.8068 77.9698 75.8022 77.9325C77.4339 77.7219 77.8433 77.9208 78.5158 79.222C81.3786 84.7487 83.3086 90.5533 83.7472 96.7993C83.832 97.9836 84.5426 98.6679 85.5192 98.6065C86.5018 98.5451 87.1948 97.7789 86.9959 96.5917C86.4403 93.2581 85.7883 89.9392 85.0982 86.6319C84.9549 85.9447 84.9578 85.4067 85.3087 84.7926C87.3118 81.2894 89.733 78.1079 92.5665 75.2364C94.6602 77.1166 96.1077 76.9353 97.7131 74.6223C99.1809 72.5045 100.649 70.3844 102.15 68.2156L102.171 68.186L102.672 67.461C102.735 67.6111 102.789 67.7507 102.839 67.8818C102.936 68.1364 103.022 68.3588 103.137 68.5634C103.965 70.0226 105.857 70.1366 106.992 68.7564C107.877 67.6806 108.737 66.5858 109.597 65.4903L109.598 65.4895C110.045 64.9208 110.491 64.3518 110.942 63.7853C111.085 63.6058 111.238 63.435 111.392 63.264L111.392 63.2637C111.474 63.173 111.555 63.0821 111.635 62.9899C111.694 63.0045 111.753 63.0199 111.812 63.0352L111.887 63.0547L111.936 63.0672L111.989 63.0806C111.907 63.5779 111.826 64.0751 111.745 64.5722L111.745 64.5741L111.744 64.5776C111.515 65.984 111.286 67.3892 111.044 68.7944C110.997 69.0606 110.921 69.3213 110.845 69.5819C110.798 69.742 110.751 69.9021 110.711 70.0635C110.065 72.6806 111.448 74.0024 114.223 73.2304C114.178 73.3713 114.14 73.5065 114.104 73.6362L114.104 73.6364L114.104 73.6365L114.104 73.6367L114.104 73.6368L114.104 73.637C114.03 73.8998 113.963 74.14 113.852 74.3591C113.451 75.1486 113.054 75.94 112.657 76.7315L112.655 76.7355C111.47 79.0973 110.285 81.4595 109.006 83.7692C107.848 85.86 108.141 87.0442 110.688 88.0765C110.034 88.8751 109.391 89.6712 108.752 90.4626L108.752 90.4627L108.752 90.4629C107.245 92.3284 105.759 94.168 104.211 95.9542C103.234 97.0841 102.111 98.0937 100.993 99.099L100.992 99.0992L100.744 99.3224C100.64 99.4161 100.536 99.5098 100.433 99.6036C98.6927 101.18 98.6459 102.323 100.4 104.016C94.3678 109.528 87.5515 113.637 79.589 115.774C79.7499 115.628 79.912 115.483 80.0741 115.339L80.0744 115.339L80.0761 115.337L80.0762 115.337C80.3995 115.049 80.7224 114.761 81.0335 114.461C83.5659 112.026 85.2824 109.107 86.224 105.73C86.6392 104.244 86.3 103.32 85.2268 103.034C84.2238 102.768 83.4635 103.388 83.0629 104.803C81.44 110.54 76.2817 115.514 70.8428 116.669C70.7156 116.376 70.5854 116.086 70.4557 115.798L70.4556 115.797C70.1234 115.057 69.7948 114.325 69.5298 113.572C69.4099 113.236 69.5152 112.736 69.6848 112.394C71.8545 107.981 73.4131 103.376 74.1061 98.4983C74.2845 97.235 73.8196 96.4075 72.8166 96.2349C71.8458 96.0683 71.0708 96.6999 70.8778 97.9836C70.1146 103.086 68.3835 107.856 65.9769 112.4C65.512 113.274 65.5646 114.067 66.2723 114.801C66.5208 115.061 66.7489 115.356 66.9244 115.672C67.9244 117.465 67.3718 118.918 65.3599 119.237C63.5732 119.517 61.7222 119.596 59.918 119.479C58.1079 119.362 57.5699 118.652 57.5406 116.842C57.5062 114.771 57.5097 112.7 57.5131 110.629C57.5146 109.708 57.5161 108.788 57.5143 107.867C57.5143 107.766 57.5155 107.664 57.5166 107.563C57.5195 107.299 57.5225 107.036 57.5056 106.774C57.4354 105.665 56.7833 104.964 55.8475 104.972C54.9089 104.978 54.2363 105.68 54.2363 106.8C54.2384 109.762 54.2596 112.726 54.2811 115.739L54.2811 115.743C54.29 116.979 54.2989 118.223 54.3065 119.479H44.2502L44.2691 117.339C44.2978 114.083 44.3262 110.866 44.3526 107.648C44.3531 107.596 44.3538 107.544 44.3545 107.491V107.491C44.3578 107.252 44.3611 107.011 44.3467 106.774C44.2766 105.663 43.6274 104.964 42.6916 104.969C41.753 104.978 41.0863 105.677 41.0775 106.797C41.0581 109.001 41.0609 111.205 41.0638 113.41L41.0638 113.419C41.0648 114.203 41.0658 114.987 41.0658 115.771C41.0629 118.935 40.3845 119.637 37.203 119.605C35.8929 119.59 34.5624 119.526 33.2816 119.28C31.1733 118.877 30.3867 117.231 31.7669 115.605C33.1939 113.923 32.7611 112.628 31.9102 110.996C29.8048 106.964 28.4275 102.68 27.7023 98.1766C27.597 97.5187 27.1057 96.7087 26.5502 96.3841C25.4243 95.7291 24.24 96.852 24.4389 98.3111C25.0033 102.455 26.1466 106.44 27.907 110.23C27.9805 110.389 28.056 110.546 28.1311 110.703L28.1313 110.704C28.8654 112.238 29.5708 113.712 28.2286 115.385C28.064 115.589 28.0174 115.886 27.9622 116.237C27.9341 116.417 27.9037 116.61 27.8543 116.812C27.6265 116.722 27.3995 116.634 27.1736 116.546L27.1734 116.546L27.1731 116.546C26.6336 116.337 26.1007 116.13 25.5793 115.897C18.7747 112.844 15.0874 107.654 14.8008 100.156C14.5054 92.4218 16.8302 85.3482 20.4152 78.6314C20.6221 78.2457 21.207 78.0601 21.7766 77.8794L21.7767 77.8793L21.7767 77.8793C22.0364 77.7969 22.2929 77.7155 22.5089 77.6167C22.5089 78.31 22.5062 78.9809 22.5036 79.6357C22.4972 81.2484 22.4911 82.7639 22.5265 84.278C22.544 85.0353 22.7078 85.8015 22.8978 86.5384C23.3248 88.1876 24.6494 88.9859 26.3104 88.5999C27.1343 88.4094 27.951 88.1867 28.6804 87.9878L28.6818 87.9874L28.6822 87.9873L28.6896 87.9853C28.9871 87.9042 29.27 87.827 29.5328 87.7577C29.7887 88.5226 30.0316 89.284 30.2727 90.04L30.2728 90.0402L30.2728 90.0403C30.8255 91.7726 31.3691 93.4766 32.0388 95.1296C32.9366 97.3491 34.1326 97.7409 36.428 96.9368C37.1854 96.6707 37.9311 96.3782 38.6709 96.0653C39.1662 95.856 39.6527 95.6262 40.1584 95.3872L40.1591 95.3869C40.3668 95.2888 40.5777 95.1891 40.7938 95.0887C42.4811 97.8023 44.7737 99.8756 47.2329 101.788C48.7242 102.946 49.8647 102.94 51.3765 101.762C53.8328 99.8522 56.1166 97.7731 57.7424 95.1471C58.2575 95.3567 58.7601 95.5669 59.2556 95.7741L59.2557 95.7741C60.3156 96.2173 61.3428 96.6468 62.3889 97.0274C64.3306 97.7321 65.6348 97.273 66.4009 95.384C67.0903 93.689 67.6714 91.9503 68.2691 90.1623ZM48.8761 59.3149C49.0215 59.2239 49.1575 59.1389 49.2879 59.0627L49.2938 59.0598C50.4605 59.744 54.0807 61.1652 56.3819 61.1652C64.4108 61.1652 64.859 54.5447 65.0239 52.1087C65.044 51.8116 65.0599 51.5767 65.0848 51.4237C65.1574 51.2159 65.1657 51.1524 65.1156 51.2921C65.1038 51.325 65.0937 51.3691 65.0848 51.4237C64.6836 52.5725 62.3181 58.1299 57.0058 58.1299C52.3623 58.1299 50.9255 53.4103 50.9255 53.4103C50.9226 52.7435 51.1068 52.3839 51.7384 52.0827C53.4695 51.261 54.6246 49.8778 55.1889 48.0502C56.0048 45.4126 54.8497 43.1084 52.2355 42.2165C50.1652 41.5088 48.0686 41.5235 46.0246 42.3452C44.0069 43.1552 42.9425 44.8044 43.1618 46.8864C43.4133 49.2813 44.7262 51.0183 46.8521 52.0827C47.4896 52.4014 47.6709 52.7348 47.6621 53.3986C47.6358 55.6765 45.1531 58.1299 41.4101 58.1299C37.4872 58.897 34.3011 53.6588 33.4846 52.3163C33.3113 52.0313 33.2447 51.9219 33.3005 52.0827C33.3293 52.1653 33.3692 52.3133 33.4234 52.5136C33.9424 54.4343 35.7611 61.1652 41.4102 61.1652C45.9181 61.1652 47.7048 60.0476 48.8761 59.3149ZM46.4778 46.1583C46.7322 45.436 47.8317 45.0003 49.364 45.0208L49.3669 45.0237C49.4113 45.0255 49.458 45.0234 49.505 45.0213C49.6094 45.0165 49.715 45.0117 49.7997 45.05C50.0234 45.1495 50.2727 45.2341 50.5229 45.3189C51.1261 45.5236 51.7341 45.7299 51.9987 46.1495C52.5162 46.9712 51.8291 47.8777 51.1506 48.5298C50.3991 49.2521 49.5248 49.6468 48.4692 49.2111C48.2031 49.1029 47.9428 48.9567 47.7118 48.7842C46.7995 48.1058 46.2292 46.8689 46.4778 46.1583ZM82.633 21.522C82.628 21.5566 82.6241 21.6048 82.6194 21.6627V21.6628C82.6046 21.8443 82.582 22.1216 82.4955 22.3788C82.3327 22.8645 82.1707 23.3506 82.0087 23.8366L82.0076 23.8398C81.2736 26.0416 80.5396 28.2432 79.7351 30.4174C79.1766 31.9292 77.928 32.1543 76.7174 31.0519C73.7084 28.312 71.1146 25.224 69.0034 21.7413C68.1436 20.3202 68.515 19.2207 70.1613 18.8932C72.9773 18.3317 75.8196 17.8463 78.6736 17.551C80.8551 17.3229 82.6242 19.1534 82.633 21.522ZM72.9773 21.446L72.8604 21.832C74.3517 23.6274 75.843 25.4229 77.5157 27.4347C77.678 26.9105 77.8349 26.406 77.9871 25.9161L77.9877 25.9141L77.9917 25.9015L77.9918 25.901C78.4519 24.4208 78.8705 23.0739 79.276 21.7238C79.4485 21.1506 79.238 20.7559 78.5918 20.8202C77.2807 20.9511 75.9725 21.102 74.6642 21.253L74.6629 21.2531L74.6628 21.2531L74.6626 21.2531C74.101 21.3179 73.5393 21.3827 72.9773 21.446ZM22.5167 17.7559L22.5166 17.7559C21.6568 17.5998 20.797 17.4437 19.9385 17.282V17.2791C17.3536 17.4662 15.3534 19.7471 16.0406 22.1624C16.8418 24.9901 17.8536 27.7623 18.8741 30.5198C19.3859 31.9 20.6608 32.1281 21.772 31.1221C24.8453 28.3442 27.4888 25.2007 29.6205 21.6449C30.3954 20.3494 30.0007 19.2441 28.5064 18.9166C26.5203 18.483 24.5184 18.1194 22.5168 17.756L22.5168 17.7559L22.5167 17.7559ZM22.8193 25.3226L21.0644 27.4581C20.8926 26.9058 20.7273 26.3757 20.5671 25.8621L20.5671 25.8621L20.5671 25.8621C20.1083 24.391 19.6918 23.0553 19.2864 21.718C19.1051 21.1214 19.3566 20.7588 19.9853 20.8232C21.2885 20.9531 22.5889 21.1027 24.0097 21.2662C24.6357 21.3382 25.285 21.413 25.9682 21.4899C24.874 22.8225 23.8689 24.0455 22.837 25.3011L22.823 25.318L22.8193 25.3226ZM61.3478 39.029C61.3478 38.8843 61.3434 38.7388 61.3389 38.5931V38.593C61.329 38.2648 61.319 37.9357 61.3595 37.6137C61.4706 36.6926 62.035 36.1546 62.9561 36.1399C63.8801 36.1253 64.503 36.6546 64.5878 37.5699C64.6784 38.5407 64.6726 39.5349 64.5936 40.5087C64.5176 41.4152 63.9445 41.9474 63.0029 41.9825C62.111 42.0146 61.4326 41.3859 61.3536 40.4473C61.3256 40.127 61.3332 39.8027 61.3408 39.4789V39.4789L61.3408 39.4785C61.3443 39.3294 61.3478 39.1804 61.3478 39.032V39.029ZM37.2223 39.4999C37.2183 39.3529 37.2144 39.206 37.2144 39.0596H37.2114C37.2114 38.9149 37.2147 38.7696 37.2181 38.6242C37.2255 38.2966 37.233 37.9683 37.2027 37.6443C37.1149 36.7144 36.5623 36.1735 35.6411 36.1384C34.7142 36.1033 34.0767 36.6325 33.9831 37.5361C33.8779 38.542 33.8749 39.5743 33.9831 40.5802C34.0796 41.475 34.6937 42.0072 35.6411 41.9721C36.5769 41.937 37.1091 41.396 37.2056 40.4749C37.2398 40.1525 37.231 39.8259 37.2223 39.4999Z" fill="#00625C"/>
</svg>
