<svg width="25" height="24" viewBox="0 0 25 24" fill="none" xmlns="http://www.w3.org/2000/svg">
    <g clip-path="url(#clip0_542_698)">
        <path d="M12.5 24C19.1274 24 24.5 18.6274 24.5 12C24.5 5.37258 19.1274 0 12.5 0C5.87258 0 0.5 5.37258 0.5 12C0.5 18.6274 5.87258 24 12.5 24Z" fill="#F7931A"/>
        <path d="M17.774 10.515C18.0095 8.943 16.8118 8.09775 15.1753 7.53375L15.7062 5.40375L14.4103 5.08125L13.8928 7.155C13.5523 7.0695 13.2028 6.99 12.854 6.9105L13.3752 4.82325L12.0793 4.5L11.5483 6.62925C11.2663 6.56475 10.9888 6.50175 10.7203 6.43425L10.7218 6.4275L8.93375 5.98125L8.58875 7.36575C8.58875 7.36575 9.551 7.58625 9.53075 7.59975C10.0558 7.731 10.1503 8.07825 10.1345 8.35425L9.53 10.7805C9.566 10.7895 9.6125 10.803 9.665 10.8232L9.52775 10.7895L8.68025 14.1885C8.61575 14.3475 8.453 14.5867 8.0855 14.496C8.099 14.5147 7.1435 14.2612 7.1435 14.2612L6.5 15.7448L8.1875 16.1655C8.501 16.2443 8.8085 16.3267 9.11075 16.404L8.5745 18.558L9.86975 18.8805L10.4008 16.7505C10.7548 16.8457 11.0983 16.9342 11.4343 17.0182L10.9047 19.1392L12.2008 19.4618L12.737 17.3123C14.948 17.7308 16.61 17.562 17.3097 15.5625C17.8737 13.953 17.282 13.0238 16.1188 12.4185C16.9663 12.2235 17.6037 11.6663 17.774 10.515ZM14.8115 14.6685C14.4118 16.2788 11.7005 15.408 10.8215 15.1898L11.534 12.336C12.413 12.5557 15.2308 12.99 14.8115 14.6685ZM15.2128 10.4918C14.8475 11.9565 12.5915 11.2118 11.8603 11.0295L12.5052 8.442C13.2365 8.62425 15.5938 8.964 15.2128 10.4918Z" fill="white"/>
    </g>
    <defs>
        <clipPath id="clip0_542_698">
            <rect width="24" height="24" fill="white" transform="translate(0.5)"/>
        </clipPath>
    </defs>
</svg>
