<svg width="25" height="24" viewBox="0 0 25 24" fill="none" xmlns="http://www.w3.org/2000/svg">
    <g clip-path="url(#clip0_542_694)">
        <path d="M12.5 24C19.1274 24 24.5 18.6274 24.5 12C24.5 5.37258 19.1274 0 12.5 0C5.87258 0 0.5 5.37258 0.5 12C0.5 18.6274 5.87258 24 12.5 24Z" fill="#F3BA2F"/>
        <path d="M9.587 10.803L12.5 7.89L15.4145 10.8045L17.1095 9.1095L12.5 4.5L7.892 9.108L9.587 10.803ZM5 12L6.695 10.305L8.39 12L6.695 13.695L5 12ZM9.587 13.197L12.5 16.11L15.4145 13.1955L17.1095 14.8898L12.5 19.5L7.892 14.892L7.88975 14.8898L9.587 13.197ZM16.61 12L18.305 10.305L20 12L18.305 13.695L16.61 12ZM14.219 11.9985H14.2205V12L12.5 13.7205L10.7817 12.003L10.7787 12L10.7817 11.9977L11.0825 11.6962L11.2288 11.55L12.5 10.2795L14.2197 11.9992L14.219 11.9985Z" fill="white"/>
    </g>
    <defs>
        <clipPath id="clip0_542_694">
            <rect width="24" height="24" fill="white" transform="translate(0.5)"/>
        </clipPath>
    </defs>
</svg>
