<svg width="25" height="24" viewBox="0 0 25 24" fill="none" xmlns="http://www.w3.org/2000/svg">
    <g clip-path="url(#clip0_542_702)">
        <path d="M12.5 24C19.1274 24 24.5 18.6274 24.5 12C24.5 5.37258 19.1274 0 12.5 0C5.87258 0 0.5 5.37258 0.5 12C0.5 18.6274 5.87258 24 12.5 24Z" fill="#627EEA"/>
        <path d="M12.5 3V9.6525L18.1228 12.165L12.5 3Z" fill="white" fill-opacity="0.602"/>
        <path d="M12.8735 3L7.25 12.165L12.8735 9.6525V3Z" fill="white"/>
        <path d="M12.5 16.764V21.2843L18.1265 13.5L12.5 16.764Z" fill="white" fill-opacity="0.602"/>
        <path d="M12.8735 21.2843V16.7632L7.25 13.5L12.8735 21.2843Z" fill="white"/>
        <path d="M12.5 15.5258L18.1228 12.261L12.5 9.75V15.5258Z" fill="white" fill-opacity="0.2"/>
        <path d="M7.25 12.261L12.8735 15.5258V9.75L7.25 12.261Z" fill="white" fill-opacity="0.602"/>
    </g>
    <defs>
        <clipPath id="clip0_542_702">
            <rect width="24" height="24" fill="white" transform="translate(0.5)"/>
        </clipPath>
    </defs>
</svg>
