<svg width="60" height="60" viewBox="0 0 60 60" fill="none" xmlns="http://www.w3.org/2000/svg">
<g clip-path="url(#clip0_575_328)">
<path d="M30 60C46.5685 60 60 46.5685 60 30C60 13.4315 46.5685 0 30 0C13.4315 0 0 13.4315 0 30C0 46.5685 13.4315 60 30 60Z" fill="#00625C"/>
<path d="M13 30.0144C13.1066 27.1771 13.1066 24.3532 13.3408 21.5503C13.7216 16.9515 17.0572 13.5525 21.6456 13.2353C25.324 12.9812 29.0233 13.0003 32.715 13.0003C34.8626 13.0003 37.0349 13.0347 39.1559 13.3442C43.4283 13.9652 46.3451 17.1712 46.7868 21.4968C46.9143 22.7426 47 23.9998 47 25.2512C46.9981 29.2463 46.9638 33.2414 46.9029 37.2365C46.8801 38.7516 46.5888 40.2343 45.9376 41.6118C44.445 44.772 41.8633 46.5164 38.4705 46.7571C34.8131 47.017 31.1309 46.9998 27.4602 46.9998C25.2916 46.9998 23.1021 46.9616 20.9621 46.6559C16.7088 46.0483 13.7083 42.8136 13.3484 38.4975C13.1142 35.6755 13.1104 32.8325 13.0038 30.0163L13 30.0144ZM16.0939 29.9819C16.1681 32.5612 16.1757 35.1482 16.3299 37.7275C16.5451 41.3195 18.786 43.6581 22.3806 43.7555C27.4887 43.8931 32.6065 43.895 37.7146 43.7555C41.3397 43.6562 43.6701 41.3195 43.7672 37.6836C43.9042 32.5383 43.8985 27.3835 43.7634 22.2363C43.6701 18.7035 41.3245 16.428 37.8194 16.2235C32.6712 15.9236 27.5173 15.9255 22.3691 16.2197C18.7841 16.4242 16.547 18.6806 16.3299 22.2802C16.1757 24.8404 16.1681 27.4083 16.0939 29.9819Z" fill="white"/>
<path d="M16.0939 29.9817C16.1681 27.41 16.1757 24.8402 16.33 22.28C16.547 18.6804 18.7841 16.4239 22.3692 16.2195C27.5173 15.9272 32.6712 15.9252 37.8194 16.2233C41.3245 16.4277 43.672 18.7033 43.7634 22.236C43.8985 27.3813 43.9043 32.5381 43.7672 37.6834C43.6701 41.3193 41.3416 43.656 37.7147 43.7553C32.6065 43.8948 27.4888 43.8929 22.3806 43.7553C18.786 43.6579 16.5451 41.3193 16.33 37.7273C16.1757 35.148 16.1662 32.561 16.0939 29.9817ZM30.0495 21.2616C25.2402 21.2673 21.3677 25.1478 21.3506 29.9759C21.3334 34.8136 25.2402 38.7418 30.0648 38.7342C34.8721 38.7285 38.7466 34.848 38.7637 30.018C38.7808 25.1784 34.8778 21.254 30.0495 21.2597V21.2616ZM41.1436 20.8986C41.1398 19.7809 40.245 18.8829 39.1331 18.8752C37.9888 18.8676 37.0845 19.7732 37.0902 20.9215C37.094 22.045 37.9812 22.9372 39.0969 22.9429C40.2411 22.9506 41.1493 22.043 41.1436 20.8986Z" fill="#00625C"/>
<path d="M30.0494 21.2617C34.8777 21.256 38.7807 25.1785 38.7635 30.02C38.7464 34.8481 34.872 38.7305 30.0646 38.7362C25.2401 38.742 21.3333 34.8156 21.3504 29.978C21.3675 25.1498 25.2401 21.2694 30.0494 21.2636V21.2617ZM30.0398 35.6716C33.1527 35.6792 35.6983 33.1477 35.7116 30.0296C35.7268 26.9038 33.2117 24.3436 30.1046 24.3225C26.9688 24.3015 24.4043 26.8503 24.4043 29.9932C24.4043 33.1133 26.9346 35.664 30.0398 35.6716Z" fill="white"/>
<path d="M41.1435 20.8969C41.1473 22.0414 40.2411 22.947 39.0968 22.9413C37.9792 22.9356 37.0939 22.0433 37.0901 20.9199C37.0863 19.7716 37.9887 18.8659 39.133 18.8736C40.2468 18.8812 41.1397 19.7792 41.1435 20.8969Z" fill="white"/>
<path d="M30.0399 35.6715C26.9327 35.6638 24.4024 33.1131 24.4043 29.9931C24.4043 26.8501 26.9689 24.3014 30.1046 24.3224C33.2099 24.3434 35.7249 26.9036 35.7116 30.0294C35.6964 33.1475 33.1509 35.6791 30.0399 35.6715Z" fill="#00625C"/>
</g>
<defs>
<clipPath id="clip0_575_328">
<rect width="60" height="60" fill="white"/>
</clipPath>
</defs>
</svg>
