<svg width="60" height="60" viewBox="0 0 60 60" fill="none" xmlns="http://www.w3.org/2000/svg">
<g clip-path="url(#clip0_575_327)">
<path d="M30 60C46.5685 60 60 46.5685 60 30C60 13.4315 46.5685 0 30 0C13.4315 0 0 13.4315 0 30C0 46.5685 13.4315 60 30 60Z" fill="#00625C"/>
<path fill-rule="evenodd" clip-rule="evenodd" d="M13.5798 29.6834C22.3254 25.8731 28.1572 23.3611 31.0751 22.1474C39.4064 18.6821 41.1376 18.0801 42.266 18.0603C42.5141 18.0559 43.069 18.1174 43.4285 18.4091C43.732 18.6553 43.8155 18.988 43.8554 19.2215C43.8954 19.455 43.9452 19.9869 43.9056 20.4025C43.4541 25.1462 41.5006 36.6579 40.5067 41.971C40.0862 44.2191 39.2582 44.9729 38.4565 45.0467C36.7144 45.207 35.3915 43.8953 33.7041 42.7893C31.0637 41.0584 29.5721 39.981 27.0091 38.2921C24.0472 36.3402 25.9673 35.2674 27.6553 33.5142C28.097 33.0553 35.773 26.0734 35.9216 25.4401C35.9401 25.3609 35.9574 25.0656 35.782 24.9097C35.6066 24.7538 35.3477 24.8071 35.1608 24.8495C34.896 24.9096 30.678 27.6976 22.5067 33.2134C21.3094 34.0356 20.2249 34.4362 19.2533 34.4152C18.1821 34.392 16.1217 33.8095 14.5899 33.3116C12.7112 32.7009 11.218 32.378 11.348 31.3408C11.4157 30.8006 12.1596 30.2481 13.5798 29.6834Z" fill="white"/>
</g>
<defs>
<clipPath id="clip0_575_327">
<rect width="60" height="60" fill="white"/>
</clipPath>
</defs>
</svg>
