<svg width="25" height="24" viewBox="0 0 25 24" fill="none" xmlns="http://www.w3.org/2000/svg">
    <path d="M12.5 24C19.1274 24 24.5 18.6274 24.5 12C24.5 5.37258 19.1274 0 12.5 0C5.87258 0 0.5 5.37258 0.5 12C0.5 18.6274 5.87258 24 12.5 24Z" fill="#26A17B"/>
    <path fill-rule="evenodd" clip-rule="evenodd" d="M13.7165 13.173V13.1715C13.634 13.1775 13.2087 13.203 12.26 13.203C11.5025 13.203 10.9692 13.1805 10.7817 13.1715V13.1738C7.86575 13.0455 5.68925 12.5378 5.68925 11.9303C5.68925 11.3235 7.86575 10.8158 10.7817 10.6853V12.6682C10.9722 12.6817 11.5182 12.714 12.2727 12.714C13.178 12.714 13.6318 12.6765 13.7165 12.669V10.6867C16.6265 10.8165 18.7977 11.3243 18.7977 11.9303C18.7977 12.5378 16.6265 13.044 13.7165 13.173ZM13.7165 10.4805V8.706H17.777V6H6.72125V8.706H10.7817V10.4798C7.48175 10.6312 5 11.2852 5 12.0682C5 12.8512 7.48175 13.5045 10.7817 13.6567V19.3433H13.7165V13.6552C17.0113 13.5037 19.487 12.8505 19.487 12.0682C19.487 11.286 17.0113 10.6328 13.7165 10.4805Z" fill="white"/>
</svg>
